<svg width="3000" height="3000" viewBox="0 0 3000 3000" fill="none" xmlns="http://www.w3.org/2000/svg">
<path d="M2168.65 1480.1L2007.32 1385.08L1938.82 1345.3C1912.3 1329.83 1881.36 1329.83 1854.84 1345.3L1541.02 1526.51C1514.5 1541.98 1483.56 1541.98 1457.04 1526.51L1145.44 1345.3C1118.92 1329.83 1087.98 1329.83 1061.46 1345.3L992.951 1385.08L831.623 1480.1C776.374 1513.25 776.374 1592.81 831.623 1623.75L1105.66 1782.87L1461.46 1988.4C1487.98 2003.87 1518.92 2003.87 1545.44 1988.4L1901.25 1782.87L2175.28 1623.75C2226.11 1592.81 2226.11 1513.25 2168.65 1480.1Z" fill="url(#paint0_linear_169_3867)"/>
<path d="M2168.68 1146.41L1936.63 1011.6C1910.11 996.133 1879.17 996.133 1852.65 1011.6L1538.84 1192.82C1512.32 1208.29 1481.38 1208.29 1454.86 1192.82L1141.04 1011.6C1114.52 996.133 1083.58 996.133 1057.06 1011.6L829.437 1146.41C774.188 1179.56 774.188 1259.12 829.437 1290.06L992.974 1385.09L1103.47 1449.18L1459.28 1654.7C1485.8 1670.17 1516.74 1670.17 1543.26 1654.7L1899.06 1449.18L2009.56 1385.09L2173.1 1290.06C2226.13 1259.12 2226.13 1179.56 2168.68 1146.41Z" fill="url(#paint1_linear_169_3867)"/>
<g opacity="0.3">
<path d="M1457.03 1656.96C1483.55 1672.43 1514.49 1672.43 1541.01 1656.96L1896.81 1451.43L2007.31 1387.34L1938.8 1347.56C1912.28 1332.09 1881.34 1332.09 1854.82 1347.56L1541.01 1528.78C1514.49 1544.25 1483.55 1544.25 1457.03 1528.78L1145.42 1345.35C1118.91 1329.88 1087.97 1329.88 1061.45 1345.35L992.938 1385.13L1103.44 1449.22L1457.03 1656.96Z" fill="#2CE0B6"/>
</g>
<defs>
<linearGradient id="paint0_linear_169_3867" x1="1499.84" y1="2002.09" x2="1499.84" y2="1335.01" gradientUnits="userSpaceOnUse">
<stop stop-color="#2CE0B6"/>
<stop offset="0.870192" stop-color="#13A482"/>
</linearGradient>
<linearGradient id="paint1_linear_169_3867" x1="1499.82" y1="1253.7" x2="1499.82" y2="1668.62" gradientUnits="userSpaceOnUse">
<stop stop-color="#E1FBF5"/>
<stop offset="1" stop-color="#96F0DB"/>
</linearGradient>
</defs>
</svg>
