<svg width="886" height="852" viewBox="0 0 886 852" fill="none" xmlns="http://www.w3.org/2000/svg">
<g opacity="0.45">
<g opacity="0.25" filter="url(#filter0_f_653_2219)">
<ellipse rx="275.21" ry="275.218" transform="matrix(0.00395111 -0.999992 0.999982 0.00606879 460.301 425.879)" fill="url(#paint0_angular_653_2219)"/>
</g>
<g opacity="0.5">
<path d="M631 285V356.273L562.412 422.763L631 356.273V285Z" fill="#050717"/>
<path d="M455.362 285L313 422.763H386.693L481.272 330.975H516.947L422.34 422.763H489.005L631 285H455.362Z" fill="#050717"/>
<path d="M313 422.764L457.043 566.789H531.235L387.563 422.764H313Z" fill="#050717"/>
<path d="M425.235 422.764L565.26 566.789H631L490.975 422.764H425.235Z" fill="#050717"/>
<path d="M631 285L487.588 422.763L631 566.789V493.896L565.397 425.894L631 357.893V285Z" fill="#050717"/>
<path d="M346.33 566.789H419L279.698 422.764H207L346.33 566.789Z" fill="#050717"/>
<path d="M346.33 285H419L279.698 422.763H207L346.33 285Z" fill="#050717"/>
</g>
<g opacity="0.25" filter="url(#filter1_f_653_2219)">
<ellipse rx="275.21" ry="275.218" transform="matrix(0.00395111 -0.999992 0.999982 0.00606879 425.301 425.879)" fill="url(#paint1_angular_653_2219)"/>
</g>
<g opacity="0.5">
<path d="M596 285V356.273L527.412 422.763L596 356.273V285Z" fill="#050717"/>
<path d="M420.362 285L278 422.763H351.693L446.272 330.975H481.947L387.34 422.763H454.005L596 285H420.362Z" fill="#050717"/>
<path d="M278 422.764L422.043 566.789H496.235L352.563 422.764H278Z" fill="#050717"/>
<path d="M390.235 422.764L530.26 566.789H596L455.975 422.764H390.235Z" fill="#050717"/>
<path d="M596 285L452.588 422.763L596 566.789V493.896L530.397 425.894L596 357.893V285Z" fill="#050717"/>
<path d="M311.33 566.789H384L244.698 422.764H172L311.33 566.789Z" fill="#050717"/>
<path d="M311.33 285H384L244.698 422.763H172L311.33 285Z" fill="#050717"/>
</g>
<g opacity="0.25" filter="url(#filter2_f_653_2219)">
<ellipse rx="275.21" ry="275.218" transform="matrix(0.00395111 -0.999992 0.999982 0.00606879 425.301 425.879)" fill="url(#paint2_angular_653_2219)"/>
</g>
<g opacity="0.5">
<path d="M596 285V356.273L527.412 422.763L596 356.273V285Z" fill="#050717"/>
<path d="M420.362 285L278 422.763H351.693L446.272 330.975H481.947L387.34 422.763H454.005L596 285H420.362Z" fill="#050717"/>
<path d="M278 422.764L422.043 566.789H496.235L352.563 422.764H278Z" fill="#050717"/>
<path d="M390.235 422.764L530.26 566.789H596L455.975 422.764H390.235Z" fill="#050717"/>
<path d="M596 285L452.588 422.763L596 566.789V493.896L530.397 425.894L596 357.893V285Z" fill="#050717"/>
<path d="M311.33 566.789H384L244.698 422.764H172L311.33 566.789Z" fill="#050717"/>
<path d="M311.33 285H384L244.698 422.763H172L311.33 285Z" fill="#050717"/>
</g>
</g>
<g opacity="0.45">
<g opacity="0.25" filter="url(#filter3_f_653_2219)">
<ellipse rx="275.21" ry="275.218" transform="matrix(0.00395111 -0.999992 0.999982 0.00606879 460.301 425.879)" fill="url(#paint3_angular_653_2219)"/>
</g>
<g opacity="0.5">
<path d="M631 285V356.273L562.412 422.763L631 356.273V285Z" fill="#050717"/>
<path d="M455.362 285L313 422.763H386.693L481.272 330.975H516.947L422.34 422.763H489.005L631 285H455.362Z" fill="#050717"/>
<path d="M313 422.764L457.043 566.789H531.235L387.563 422.764H313Z" fill="#050717"/>
<path d="M425.235 422.764L565.26 566.789H631L490.975 422.764H425.235Z" fill="#050717"/>
<path d="M631 285L487.588 422.763L631 566.789V493.896L565.397 425.894L631 357.893V285Z" fill="#050717"/>
<path d="M346.33 566.789H419L279.698 422.764H207L346.33 566.789Z" fill="#050717"/>
<path d="M346.33 285H419L279.698 422.763H207L346.33 285Z" fill="#050717"/>
</g>
<g opacity="0.25" filter="url(#filter4_f_653_2219)">
<ellipse rx="275.21" ry="275.218" transform="matrix(0.00395111 -0.999992 0.999982 0.00606879 425.301 425.879)" fill="url(#paint4_angular_653_2219)"/>
</g>
<g opacity="0.5">
<path d="M596 285V356.273L527.412 422.763L596 356.273V285Z" fill="#050717"/>
<path d="M420.362 285L278 422.763H351.693L446.272 330.975H481.947L387.34 422.763H454.005L596 285H420.362Z" fill="#050717"/>
<path d="M278 422.764L422.043 566.789H496.235L352.563 422.764H278Z" fill="#050717"/>
<path d="M390.235 422.764L530.26 566.789H596L455.975 422.764H390.235Z" fill="#050717"/>
<path d="M596 285L452.588 422.763L596 566.789V493.896L530.397 425.894L596 357.893V285Z" fill="#050717"/>
<path d="M311.33 566.789H384L244.698 422.764H172L311.33 566.789Z" fill="#050717"/>
<path d="M311.33 285H384L244.698 422.763H172L311.33 285Z" fill="#050717"/>
</g>
<g opacity="0.25" filter="url(#filter5_f_653_2219)">
<ellipse rx="275.21" ry="275.218" transform="matrix(0.00395111 -0.999992 0.999982 0.00606879 425.301 425.879)" fill="url(#paint5_angular_653_2219)"/>
</g>
<g opacity="0.5">
<path d="M596 285V356.273L527.412 422.763L596 356.273V285Z" fill="#050717"/>
<path d="M420.362 285L278 422.763H351.693L446.272 330.975H481.947L387.34 422.763H454.005L596 285H420.362Z" fill="#050717"/>
<path d="M278 422.764L422.043 566.789H496.235L352.563 422.764H278Z" fill="#050717"/>
<path d="M390.235 422.764L530.26 566.789H596L455.975 422.764H390.235Z" fill="#050717"/>
<path d="M596 285L452.588 422.763L596 566.789V493.896L530.397 425.894L596 357.893V285Z" fill="#050717"/>
<path d="M311.33 566.789H384L244.698 422.764H172L311.33 566.789Z" fill="#050717"/>
<path d="M311.33 285H384L244.698 422.763H172L311.33 285Z" fill="#050717"/>
</g>
</g>
<defs>
<filter id="filter0_f_653_2219" x="35.085" y="0.666016" width="850.432" height="850.426" filterUnits="userSpaceOnUse" color-interpolation-filters="sRGB">
<feFlood flood-opacity="0" result="BackgroundImageFix"/>
<feBlend mode="normal" in="SourceGraphic" in2="BackgroundImageFix" result="shape"/>
<feGaussianBlur stdDeviation="75" result="effect1_foregroundBlur_653_2219"/>
</filter>
<filter id="filter1_f_653_2219" x="0.0849609" y="0.666016" width="850.432" height="850.426" filterUnits="userSpaceOnUse" color-interpolation-filters="sRGB">
<feFlood flood-opacity="0" result="BackgroundImageFix"/>
<feBlend mode="normal" in="SourceGraphic" in2="BackgroundImageFix" result="shape"/>
<feGaussianBlur stdDeviation="75" result="effect1_foregroundBlur_653_2219"/>
</filter>
<filter id="filter2_f_653_2219" x="0.0849609" y="0.666016" width="850.432" height="850.426" filterUnits="userSpaceOnUse" color-interpolation-filters="sRGB">
<feFlood flood-opacity="0" result="BackgroundImageFix"/>
<feBlend mode="normal" in="SourceGraphic" in2="BackgroundImageFix" result="shape"/>
<feGaussianBlur stdDeviation="75" result="effect1_foregroundBlur_653_2219"/>
</filter>
<filter id="filter3_f_653_2219" x="35.085" y="0.666016" width="850.432" height="850.426" filterUnits="userSpaceOnUse" color-interpolation-filters="sRGB">
<feFlood flood-opacity="0" result="BackgroundImageFix"/>
<feBlend mode="normal" in="SourceGraphic" in2="BackgroundImageFix" result="shape"/>
<feGaussianBlur stdDeviation="75" result="effect1_foregroundBlur_653_2219"/>
</filter>
<filter id="filter4_f_653_2219" x="0.0849609" y="0.666016" width="850.432" height="850.426" filterUnits="userSpaceOnUse" color-interpolation-filters="sRGB">
<feFlood flood-opacity="0" result="BackgroundImageFix"/>
<feBlend mode="normal" in="SourceGraphic" in2="BackgroundImageFix" result="shape"/>
<feGaussianBlur stdDeviation="75" result="effect1_foregroundBlur_653_2219"/>
</filter>
<filter id="filter5_f_653_2219" x="0.0849609" y="0.666016" width="850.432" height="850.426" filterUnits="userSpaceOnUse" color-interpolation-filters="sRGB">
<feFlood flood-opacity="0" result="BackgroundImageFix"/>
<feBlend mode="normal" in="SourceGraphic" in2="BackgroundImageFix" result="shape"/>
<feGaussianBlur stdDeviation="75" result="effect1_foregroundBlur_653_2219"/>
</filter>
<radialGradient id="paint0_angular_653_2219" cx="0" cy="0" r="1" gradientUnits="userSpaceOnUse" gradientTransform="translate(264.158 230.697) rotate(56.0941) scale(261.517 298.361)">
<stop offset="0.361619" stop-color="#095442"/>
<stop offset="0.833302" stop-color="#04F09B"/>
<stop offset="0.989136" stop-color="#00F2E4"/>
</radialGradient>
<radialGradient id="paint1_angular_653_2219" cx="0" cy="0" r="1" gradientUnits="userSpaceOnUse" gradientTransform="translate(264.158 230.697) rotate(56.0941) scale(261.517 298.361)">
<stop offset="0.361619" stop-color="#095442"/>
<stop offset="0.833302" stop-color="#04F09B"/>
<stop offset="0.989136" stop-color="#00F2E4"/>
</radialGradient>
<radialGradient id="paint2_angular_653_2219" cx="0" cy="0" r="1" gradientUnits="userSpaceOnUse" gradientTransform="translate(264.158 230.697) rotate(56.0941) scale(261.517 298.361)">
<stop offset="0.361619" stop-color="#095442"/>
<stop offset="0.833302" stop-color="#04F09B"/>
<stop offset="0.989136" stop-color="#00F2E4"/>
</radialGradient>
<radialGradient id="paint3_angular_653_2219" cx="0" cy="0" r="1" gradientUnits="userSpaceOnUse" gradientTransform="translate(264.158 230.697) rotate(56.0941) scale(261.517 298.361)">
<stop offset="0.361619" stop-color="#095442"/>
<stop offset="0.833302" stop-color="#04F09B"/>
<stop offset="0.989136" stop-color="#00F2E4"/>
</radialGradient>
<radialGradient id="paint4_angular_653_2219" cx="0" cy="0" r="1" gradientUnits="userSpaceOnUse" gradientTransform="translate(264.158 230.697) rotate(56.0941) scale(261.517 298.361)">
<stop offset="0.361619" stop-color="#095442"/>
<stop offset="0.833302" stop-color="#04F09B"/>
<stop offset="0.989136" stop-color="#00F2E4"/>
</radialGradient>
<radialGradient id="paint5_angular_653_2219" cx="0" cy="0" r="1" gradientUnits="userSpaceOnUse" gradientTransform="translate(264.158 230.697) rotate(56.0941) scale(261.517 298.361)">
<stop offset="0.361619" stop-color="#095442"/>
<stop offset="0.833302" stop-color="#04F09B"/>
<stop offset="0.989136" stop-color="#00F2E4"/>
</radialGradient>
</defs>
</svg>
