<svg width="2326" height="485" viewBox="0 0 2326 485" fill="none" xmlns="http://www.w3.org/2000/svg">
<path d="M667.697 232.185L589.677 186.228L556.546 166.99C543.721 159.509 528.758 159.509 515.933 166.99L364.169 254.629C351.344 262.11 336.381 262.11 323.556 254.629L172.861 166.99C160.036 159.509 145.073 159.509 132.248 166.99L99.1168 186.228L21.0973 232.185C-5.62164 248.216 -5.62164 286.692 21.0973 301.655L153.624 378.605L325.694 478C338.519 485.482 353.482 485.482 366.307 478L538.377 378.605L670.903 301.655C695.485 286.692 695.485 248.216 667.697 232.185Z" fill="url(#paint0_linear_169_3285)"/>
<path d="M667.707 70.8056L555.488 5.611C542.662 -1.87033 527.7 -1.87033 514.875 5.611L363.111 93.2496C350.286 100.731 335.323 100.731 322.498 93.2496L170.734 5.611C157.909 -1.87033 142.947 -1.87033 130.121 5.611L20.0392 70.8056C-6.67975 86.837 -6.67975 125.312 20.0392 140.275L99.1274 186.232L152.565 217.226L324.636 316.621C337.461 324.102 352.423 324.102 365.248 316.621L537.319 217.226L590.757 186.232L669.845 140.275C695.495 125.312 695.495 86.837 667.707 70.8056Z" fill="url(#paint1_linear_169_3285)"/>
<g opacity="0.3">
<path d="M323.549 317.708C336.374 325.19 351.336 325.19 364.162 317.708L536.232 218.314L589.67 187.319L556.538 168.082C543.713 160.6 528.751 160.6 515.925 168.082L364.162 255.72C351.336 263.202 336.374 263.202 323.549 255.72L172.854 167.013C160.029 159.532 145.066 159.532 132.241 167.013L99.1094 186.251L152.547 217.245L323.549 317.708Z" fill="#2CE0B6"/>
</g>
<path fill-rule="evenodd" clip-rule="evenodd" d="M1616.95 0C1592.98 0 1574.93 5.92421 1562.82 16.0273C1550.65 26.1824 1544.83 40.2715 1544.83 55.7629C1544.83 70.0126 1548.62 81.6544 1556.92 90.3294C1565.17 98.947 1577.44 104.199 1593.54 106.58L1593.55 106.581L1636.32 113.119C1647.47 114.98 1654.91 118.152 1659.57 122.692C1664.11 127.123 1666.44 133.289 1666.44 142.202C1666.44 152.063 1663.79 159.322 1657.37 164.286C1650.74 169.419 1639.47 172.606 1621.04 172.606C1600.56 172.606 1587.44 167.617 1579.37 159.826C1571.32 152.046 1567.72 140.922 1567.46 127.411L1567.4 124.069H1555.6C1546.39 124.069 1538.04 131.713 1539.67 141.612C1542.23 157.092 1549.35 171.104 1562.68 181.196C1575.96 191.253 1595.04 197.147 1621.04 197.147C1646.75 197.147 1665.6 192.119 1678.05 182.115C1690.66 171.99 1696.17 157.241 1696.17 139.203C1696.17 123.906 1691.7 112.089 1682.63 103.465C1673.67 94.9503 1660.62 89.9418 1644.22 87.3006L1598.94 80.4821L1598.93 80.4801C1589.09 78.925 1583.14 75.5797 1579.6 71.4169C1576.07 67.2531 1574.55 61.8007 1574.55 55.2176C1574.55 45.9505 1577.64 38.4919 1584.12 33.2603C1590.72 27.9356 1601.29 24.5411 1616.95 24.5411C1633.46 24.5411 1644.84 28.5668 1652.35 35.09C1659.84 41.596 1663.93 50.9826 1665.1 62.6464L1665.4 65.7157H1675.95C1685.57 65.7157 1694.28 57.2812 1691.47 46.998C1687.6 32.7969 1679.53 20.9537 1667 12.7071C1654.51 4.49084 1637.83 0 1616.95 0ZM2022.52 0C1990.23 0 1966.58 10.6572 1951.06 28.6547C1935.6 46.5699 1928.58 71.3179 1928.58 98.8463C1928.58 126.773 1935.6 151.531 1951.06 169.352C1966.6 187.254 1990.25 197.692 2022.52 197.692C2054.8 197.692 2078.39 187.18 2093.85 169.242C2109.24 151.387 2116.19 126.633 2116.19 98.8463C2116.19 71.4585 2109.24 46.7141 2093.86 28.7654C2078.41 10.7309 2054.82 0 2022.52 0ZM1959.12 98.8463C1959.12 73.7092 1964.18 55.5167 1974.33 43.6257C1984.38 31.8477 1999.97 25.6319 2022.52 25.6319C2045.08 25.6319 2060.59 31.8471 2070.57 43.6177C2080.66 55.5068 2085.65 73.7 2085.65 98.8463C2085.65 123.992 2080.66 142.186 2070.57 154.075C2060.59 165.845 2045.08 172.061 2022.52 172.061C1999.97 172.061 1984.38 165.845 1974.33 154.067C1964.18 142.176 1959.12 123.983 1959.12 98.8463ZM2246.21 0C2222.23 0 2204.19 5.92421 2192.08 16.0273C2179.91 26.1824 2174.09 40.2715 2174.09 55.7629C2174.09 70.0126 2177.88 81.6544 2186.18 90.3294C2194.42 98.947 2206.7 104.199 2222.8 106.58L2222.81 106.581L2265.58 113.119C2276.73 114.98 2284.17 118.152 2288.82 122.692C2293.37 127.123 2295.7 133.289 2295.7 142.202C2295.7 152.063 2293.04 159.322 2286.63 164.286C2280 169.419 2268.73 172.606 2250.3 172.606C2229.81 172.606 2216.7 167.617 2208.63 159.826C2200.57 152.046 2196.98 140.922 2196.72 127.411L2196.65 124.069H2184.86C2175.64 124.069 2167.3 131.713 2168.93 141.612C2171.49 157.092 2178.61 171.104 2191.93 181.196C2205.21 191.253 2224.3 197.147 2250.3 197.147C2276.01 197.147 2294.85 192.119 2307.31 182.115C2319.92 171.99 2325.42 157.241 2325.42 139.203C2325.42 123.906 2320.96 112.089 2311.89 103.465C2302.93 94.9503 2289.88 89.9418 2273.47 87.3006L2228.2 80.4821L2228.19 80.4801C2218.35 78.925 2212.4 75.5797 2208.86 71.4169C2205.32 67.2531 2203.81 61.8007 2203.81 55.2176C2203.81 45.9505 2206.9 38.4919 2213.38 33.2603C2219.98 27.9356 2230.55 24.5411 2246.21 24.5411C2262.72 24.5411 2274.1 28.5668 2281.6 35.09C2289.09 41.596 2293.19 50.9826 2294.36 62.6464L2294.66 65.7157H2305.21C2314.83 65.7157 2323.54 57.2812 2320.73 46.998C2316.86 32.7969 2308.78 20.9537 2296.25 12.7071C2283.77 4.49084 2267.09 0 2246.21 0ZM1750.69 4.91769C1741.28 4.91769 1733.65 12.5478 1733.65 21.9601V30.0042H1799.09V193.339H1811.23C1820.64 193.339 1828.27 185.709 1828.27 176.297V30.0042H1893.17V21.9601C1893.17 12.5479 1885.54 4.91769 1876.13 4.91769H1750.69ZM1416.7 4.91769H1390.23L1327.44 169.964C1323.19 181.118 1331.43 193.066 1343.36 193.066H1348.84L1366.57 146.711H1451.59L1469.31 193.066H1475.09C1487.01 193.066 1495.25 181.135 1491.02 169.985L1432.64 15.921C1430.13 9.2981 1423.79 4.91769 1416.7 4.91769ZM1442.18 121.624H1375.98L1409.2 34.3029L1442.18 121.624ZM1173.71 4.91769C1164.3 4.91769 1156.67 12.5479 1156.67 21.9602V193.066H1263.97C1273.38 193.066 1281.01 185.436 1281.01 176.024V167.98H1186.12V4.91769H1173.71ZM968.575 4.91769C959.162 4.91769 951.532 12.5479 951.532 21.9602V176.024C951.532 185.436 959.162 193.066 968.575 193.066H1076.28C1085.7 193.066 1093.33 185.436 1093.33 176.024V167.98H980.982V108.809H1067.28C1076.7 108.809 1084.33 101.178 1084.33 91.766V83.9947H980.982V30.0042H1092.51V21.9601C1092.51 12.5478 1084.88 4.91769 1075.46 4.91769H968.575Z" fill="white"/>
<path d="M1412.71 481.387C1347.96 481.387 1319.65 439.62 1319.65 383.276C1319.65 327.774 1347.96 285.166 1412.71 285.166C1477.47 285.166 1505.5 328.054 1505.5 383.276C1505.5 439.34 1477.47 481.387 1412.71 481.387ZM1344.04 383.276C1344.04 435.696 1365.06 462.045 1412.71 462.045C1460.37 462.045 1481.11 435.696 1481.11 383.276C1481.11 330.857 1460.37 304.507 1412.71 304.507C1365.06 304.507 1344.04 330.857 1344.04 383.276Z" fill="#2CE0B6"/>
<path fill-rule="evenodd" clip-rule="evenodd" d="M1339.67 455.393C1323.88 437.204 1316.7 411.899 1316.7 383.274C1316.7 355.062 1323.89 329.765 1339.66 311.478C1355.5 293.121 1379.65 282.213 1412.71 282.213C1445.78 282.213 1469.86 293.195 1485.63 311.591C1501.33 329.912 1508.45 355.205 1508.45 383.274C1508.45 411.755 1501.33 437.057 1485.62 455.28C1469.85 473.576 1445.77 484.336 1412.71 484.336C1379.66 484.336 1355.51 473.651 1339.67 455.393ZM1362.75 440.401C1373.22 452.672 1389.42 459.093 1412.71 459.093C1436 459.093 1452.13 452.672 1462.53 440.408C1473.02 428.041 1478.16 409.182 1478.16 383.274C1478.16 357.367 1473.02 338.508 1462.53 326.141C1452.13 313.877 1436 307.456 1412.71 307.456C1389.42 307.456 1373.22 313.877 1362.75 326.148C1352.19 338.517 1346.98 357.375 1346.98 383.274C1346.98 409.174 1352.19 428.032 1362.75 440.401ZM1319.65 383.274C1319.65 439.618 1347.96 481.385 1412.71 481.385C1477.46 481.385 1505.5 439.338 1505.5 383.274C1505.5 328.052 1477.46 285.164 1412.71 285.164C1347.96 285.164 1319.65 327.772 1319.65 383.274ZM1412.71 462.043C1365.06 462.043 1344.03 435.694 1344.03 383.274C1344.03 330.855 1365.06 304.505 1412.71 304.505C1460.36 304.505 1481.11 330.855 1481.11 383.274C1481.11 435.694 1460.36 462.043 1412.71 462.043Z" fill="#2CE0B6"/>
<path fill-rule="evenodd" clip-rule="evenodd" d="M1304.02 481.169C1303.34 481.715 1302.48 482.049 1301.51 482.049H1283.48L1265.26 434.395H1173.03L1173.03 434.395H1265.26L1283.48 482.049H1301.51C1302.48 482.049 1303.34 481.714 1304.02 481.169ZM1202.18 295.639H1202.18L1133.33 476.627C1132.33 479.245 1134.26 482.049 1137.07 482.049H1154.81L1154.81 482.049H1137.07C1134.27 482.049 1132.33 479.244 1133.33 476.626L1202.18 295.639ZM1281.45 485L1263.22 437.346H1175.06L1156.84 485H1132.79C1129.98 485 1128.05 482.195 1129.05 479.578L1200.15 292.688H1235.94C1237.6 292.688 1239.09 293.716 1239.68 295.271L1309.52 479.583C1310.52 482.2 1308.58 485 1305.78 485H1281.45ZM1258.25 415.614H1258.25L1219.28 312.457L1219.28 312.458L1258.25 415.614ZM1253.98 412.664H1184.32L1219.27 320.782L1253.98 412.664Z" fill="#2CE0B6"/>
<path fill-rule="evenodd" clip-rule="evenodd" d="M956.739 482.049C954.53 482.049 952.739 480.258 952.739 478.049V299.639C952.739 297.798 953.982 296.248 955.675 295.782C953.984 296.249 952.741 297.798 952.741 299.638V478.049C952.741 480.258 954.532 482.049 956.741 482.049H1030.11C1040.28 482.049 1049.48 480.875 1057.74 478.683C1049.48 480.876 1040.28 482.049 1030.11 482.049H956.739ZM976.008 314.42H1025.9C1075.8 314.42 1092.62 341.05 1092.62 388.423C1092.62 425.434 1082.18 450.297 1053.96 459.404C1082.18 450.298 1092.62 425.434 1092.62 388.423C1092.62 341.049 1075.8 314.419 1025.9 314.419H976.008V314.42ZM1025.9 317.371H978.956V460.317H1025.9C1050.17 460.317 1065.85 453.618 1075.58 441.741C1085.42 429.736 1089.67 411.857 1089.67 388.423C1089.67 364.978 1085.48 347.327 1075.7 335.541C1066.02 323.878 1050.34 317.371 1025.9 317.371ZM949.789 481C949.789 483.209 951.579 485 953.789 485H1030.11C1061.4 485 1084.01 474.126 1098.74 456.356C1113.4 438.674 1119.96 414.522 1119.96 388.423C1119.96 362.599 1113.4 338.654 1098.74 321.112C1084.01 303.487 1061.4 292.688 1030.11 292.688H953.789C951.579 292.688 949.789 294.479 949.789 296.688V481Z" fill="#2CE0B6"/>
<defs>
<linearGradient id="paint0_linear_169_3285" x1="344.251" y1="484.623" x2="344.251" y2="162.016" gradientUnits="userSpaceOnUse">
<stop stop-color="#2CE0B6"/>
<stop offset="0.870192" stop-color="#13A482"/>
</linearGradient>
<linearGradient id="paint1_linear_169_3285" x1="344.242" y1="122.693" x2="344.242" y2="323.352" gradientUnits="userSpaceOnUse">
<stop stop-color="#E1FBF5"/>
<stop offset="1" stop-color="#96F0DB"/>
</linearGradient>
</defs>
</svg>
