<svg width="206" height="55" viewBox="0 0 206 55" fill="none" xmlns="http://www.w3.org/2000/svg">
<path d="M111.944 15.0221C111.349 15.8247 110.568 16.473 109.666 16.912C108.765 17.3511 107.77 17.5678 106.767 17.5438C102.951 17.5438 100.285 14.4623 100.285 10.0507C100.285 5.63904 102.729 2.66029 106.497 2.66029C107.537 2.61834 108.57 2.85466 109.486 3.34439C110.402 3.83412 111.169 4.55926 111.705 5.4439L111.871 5.72639L114.33 4.14454L114.17 3.88261C112.617 1.38149 109.862 0 106.472 0C100.886 0 97.2773 3.94424 97.2773 10.0507C97.2773 16.1571 101.077 20.2041 106.73 20.2041C109.909 20.2041 112.58 18.9664 114.258 16.7272L114.444 16.4755L112.14 14.755L111.944 15.0221Z" fill="white"/>
<path d="M122.647 16.1291L118.521 5.6123H115.589L121.284 19.4532L119.224 24.6939H122.151L129.322 5.6123H126.421L122.647 16.1291Z" fill="white"/>
<path d="M134.169 18.4007C134.651 18.9967 135.266 19.4701 135.965 19.7823C136.664 20.0945 137.426 20.2367 138.189 20.1973C141.897 20.1973 144.2 17.4484 144.2 13.0306C144.2 8.61276 141.906 5.93262 138.214 5.93262C136.439 5.93262 135.162 6.46767 134.169 7.65067V1.12207H131.611V19.942H134.169V18.4007ZM134.169 13.1287C134.169 9.80064 135.358 8.18079 137.798 8.18079C140.239 8.18079 141.618 9.94793 141.618 13.0306C141.618 16.1133 140.2 17.9393 137.823 17.9393C135.333 17.9393 134.169 16.4077 134.169 13.1189" fill="white"/>
<path d="M153.526 5.6123C149.125 5.6123 146.489 8.33887 146.489 12.8982C146.489 17.6082 149.02 20.2041 153.609 20.2041C157.306 20.2041 159.887 18.2459 160.184 15.213L160.217 14.8816H157.317L157.279 15.1477C156.932 17.5027 154.726 17.8542 153.427 17.8542C150.973 17.8542 149.576 16.2825 149.416 13.4304H160.223V12.4262C160.223 8.04258 157.84 5.62236 153.51 5.62236L153.526 5.6123ZM149.515 11.2914C149.917 9.05688 151.282 7.92209 153.57 7.92209C155.711 7.92209 157.075 9.17739 157.268 11.2914H149.515Z" fill="white"/>
<path d="M166.579 12.1021C166.579 9.74418 167.984 8.3376 170.35 8.3376C170.649 8.32962 170.947 8.36065 171.237 8.4297L171.666 8.53709V5.73415L171.432 5.66254C171.177 5.6147 170.916 5.60094 170.657 5.62164C169.874 5.59279 169.096 5.73609 168.386 6.03953C167.677 6.34297 167.057 6.79769 166.579 7.36576V5.8825H163.655V20.2041H166.579V12.1021Z" fill="white"/>
<path d="M109.004 43.1618C108.609 42.6032 108.175 42.0747 107.706 41.5805C108.973 41.3395 110.114 40.6413 110.923 39.6118C111.732 38.5823 112.157 37.2895 112.119 35.9668C112.119 32.4773 109.82 30.3057 106.12 30.3057H98.4219V50.5097H101.337V41.9495H102.646C104.585 41.9495 104.585 41.9495 106.407 44.4374L110.852 50.5097H114.444L109.199 43.4096L109.004 43.1618ZM101.337 32.9939H105.956C107.952 32.9939 109.143 34.143 109.143 36.0564C109.143 37.9698 107.849 39.277 105.93 39.277H101.311L101.337 32.9939Z" fill="white"/>
<path d="M122.034 35.918C118.006 35.918 115.589 38.6395 115.589 43.1988C115.589 47.9138 117.905 50.5098 122.135 50.5098C125.519 50.5098 127.876 48.5515 128.148 45.5186L128.178 45.1873H125.494L125.459 45.4534C125.136 47.8083 123.122 48.1598 121.934 48.1598C119.683 48.1598 118.409 46.5882 118.258 43.7361H128.148V42.7319C128.148 38.3433 125.967 35.928 122.009 35.928L122.034 35.918ZM118.348 41.5971C118.721 39.3626 119.97 38.2278 122.06 38.2278C124.023 38.2278 125.272 39.4781 125.449 41.5971H118.348Z" fill="white"/>
<path d="M138.814 35.923C136.877 35.923 135.485 36.4654 134.402 37.6599V36.1668H131.611V54.9996H134.402V48.5595C134.927 49.1646 135.598 49.6453 136.36 49.9619C137.122 50.2785 137.954 50.4222 138.787 50.381C142.832 50.381 145.345 47.5939 145.345 43.1096C145.345 38.6254 142.842 35.918 138.814 35.918V35.923ZM142.501 43.1096C142.501 46.2352 140.954 48.0866 138.355 48.0866C135.64 48.0866 134.375 46.5338 134.375 43.1943C134.375 39.8547 135.666 38.1825 138.329 38.1825C140.991 38.1825 142.501 39.9742 142.501 43.0948" fill="white"/>
<path d="M156.407 44.1973C156.407 46.5825 155.03 48.0637 152.824 48.0637C151.037 48.0637 150.311 47.0422 150.311 44.6314V35.918H147.634V45.1984C147.634 48.7736 149.169 50.5051 152.307 50.5051C153.089 50.5392 153.868 50.3875 154.58 50.0626C155.292 49.7376 155.916 49.2485 156.401 48.6357V50.2446H159.078V35.9435H156.401L156.407 44.1973Z" fill="white"/>
<path d="M170.855 35.4017C168.919 35.4017 167.527 35.9685 166.45 37.2165V30.3057H163.655V50.2375H166.45V48.5995C166.974 49.2314 167.644 49.7333 168.405 50.0641C169.166 50.3949 169.996 50.5452 170.829 50.5027C174.877 50.5027 177.389 47.5907 177.389 42.9054C177.389 38.2202 174.882 35.3913 170.855 35.3913V35.4017ZM174.541 42.9054C174.541 46.1711 172.994 48.1055 170.402 48.1055C167.687 48.1055 166.418 46.483 166.418 42.9938C166.418 39.5046 167.714 37.7574 170.375 37.7574C173.037 37.7574 174.541 39.6294 174.541 42.8898" fill="white"/>
<path d="M183.111 31.4287H180.822V50.5103H183.111V31.4287Z" fill="white"/>
<path d="M189.977 35.918H187.688V50.5098H189.977V35.918Z" fill="white"/>
<path d="M188.286 30.3059C187.946 30.2995 187.611 30.4256 187.326 30.6684C187.04 30.9111 186.817 31.2594 186.683 31.669C186.549 32.0786 186.512 32.531 186.575 32.9686C186.638 33.4062 186.8 33.8091 187.039 34.1263C187.278 34.4435 187.584 34.6606 187.917 34.7499C188.251 34.8392 188.597 34.7966 188.912 34.6277C189.228 34.4588 189.497 34.1711 189.687 33.8013C189.877 33.4314 189.978 32.9961 189.978 32.5508C189.983 32.257 189.942 31.9651 189.859 31.6921C189.776 31.4191 189.652 31.1707 189.494 30.9614C189.337 30.7522 189.148 30.5864 188.941 30.4738C188.733 30.3612 188.511 30.3041 188.286 30.3059Z" fill="white"/>
<path d="M203.295 44.896V45.1722C203.119 47.1455 201.985 48.1448 199.94 48.1448C197.451 48.1448 196.076 46.3823 196.076 43.1838C196.076 39.9852 197.451 38.2529 199.94 38.2529C201.345 38.2529 203.068 38.755 203.295 41.2657L203.325 41.5418H206V41.2155C205.788 37.9014 203.552 35.918 200.01 35.918C195.88 35.918 193.411 38.6496 193.411 43.224C193.411 47.7984 195.88 50.5098 200.01 50.5098C203.537 50.5098 205.788 48.5365 206 45.2325V44.9111L203.295 44.896Z" fill="white"/>
<path d="M77.8223 0V12.7756L65.2334 24.6939L77.8223 12.7756V0Z" fill="white"/>
<path d="M45.5846 0L19.4551 24.6939H32.9809L50.3401 8.24103H56.8881L39.5236 24.6939H51.7596L77.8217 0H45.5846Z" fill="white"/>
<path d="M19.4551 24.6943L45.8932 50.5107H59.5106L33.1406 24.6943H19.4551Z" fill="white"/>
<path d="M40.0557 24.6943L65.7562 50.5107H77.8223L52.1218 24.6943H40.0557Z" fill="white"/>
<path d="M77.8222 0L51.5 24.6939L77.8222 50.5102V37.4443L65.7813 25.2551L77.8222 13.0659V0Z" fill="white"/>
<path d="M25.5731 50.5107H38.9111L13.3431 24.6943H0L25.5731 50.5107Z" fill="white"/>
<path d="M25.5731 0H38.9111L13.3431 24.6939H0L25.5731 0Z" fill="white"/>
</svg>
